<mxfile host="app.diagrams.net" modified="2023-05-11T07:51:16.887Z" agent="Mozilla/5.0 (Windows NT 10.0; Win64; x64) AppleWebKit/537.36 (KHTML, like Gecko) Chrome/112.0.0.0 Safari/537.36" etag="h3RSMx3zgk8uj9vOR0ur" version="21.2.9" type="device">
  <diagram name="페이지-1" id="1DUUg8FGQ1boYif6UP-V">
    <mxGraphModel dx="2062" dy="646" grid="1" gridSize="10" guides="1" tooltips="1" connect="1" arrows="1" fold="1" page="1" pageScale="1" pageWidth="827" pageHeight="1169" math="0" shadow="0">
      <root>
        <mxCell id="0" />
        <mxCell id="1" parent="0" />
        <mxCell id="TDX1Om9_mr7GkMm_Q6n2-3" value="" style="edgeStyle=orthogonalEdgeStyle;rounded=0;orthogonalLoop=1;jettySize=auto;html=1;" edge="1" parent="1" source="TDX1Om9_mr7GkMm_Q6n2-1" target="TDX1Om9_mr7GkMm_Q6n2-2">
          <mxGeometry relative="1" as="geometry" />
        </mxCell>
        <mxCell id="TDX1Om9_mr7GkMm_Q6n2-5" value="" style="edgeStyle=orthogonalEdgeStyle;rounded=0;orthogonalLoop=1;jettySize=auto;html=1;" edge="1" parent="1" source="TDX1Om9_mr7GkMm_Q6n2-1" target="TDX1Om9_mr7GkMm_Q6n2-4">
          <mxGeometry relative="1" as="geometry" />
        </mxCell>
        <mxCell id="TDX1Om9_mr7GkMm_Q6n2-1" value="separated_segment" style="rounded=0;whiteSpace=wrap;html=1;" vertex="1" parent="1">
          <mxGeometry x="70" y="165" width="120" height="60" as="geometry" />
        </mxCell>
        <mxCell id="TDX1Om9_mr7GkMm_Q6n2-11" style="edgeStyle=orthogonalEdgeStyle;rounded=0;orthogonalLoop=1;jettySize=auto;html=1;exitX=0.5;exitY=0;exitDx=0;exitDy=0;entryX=0;entryY=0.5;entryDx=0;entryDy=0;" edge="1" parent="1" source="TDX1Om9_mr7GkMm_Q6n2-2" target="TDX1Om9_mr7GkMm_Q6n2-6">
          <mxGeometry relative="1" as="geometry" />
        </mxCell>
        <mxCell id="TDX1Om9_mr7GkMm_Q6n2-12" style="edgeStyle=orthogonalEdgeStyle;rounded=0;orthogonalLoop=1;jettySize=auto;html=1;entryX=0;entryY=0.5;entryDx=0;entryDy=0;" edge="1" parent="1" source="TDX1Om9_mr7GkMm_Q6n2-2" target="TDX1Om9_mr7GkMm_Q6n2-9">
          <mxGeometry relative="1" as="geometry">
            <Array as="points">
              <mxPoint x="330" y="285" />
              <mxPoint x="420" y="285" />
            </Array>
          </mxGeometry>
        </mxCell>
        <mxCell id="TDX1Om9_mr7GkMm_Q6n2-2" value="segment 내에&amp;nbsp;&lt;br&gt;file이 1개" style="whiteSpace=wrap;html=1;rounded=0;" vertex="1" parent="1">
          <mxGeometry x="270" y="165" width="120" height="60" as="geometry" />
        </mxCell>
        <mxCell id="TDX1Om9_mr7GkMm_Q6n2-19" value="" style="edgeStyle=orthogonalEdgeStyle;rounded=0;orthogonalLoop=1;jettySize=auto;html=1;" edge="1" parent="1" source="TDX1Om9_mr7GkMm_Q6n2-4" target="TDX1Om9_mr7GkMm_Q6n2-18">
          <mxGeometry relative="1" as="geometry" />
        </mxCell>
        <mxCell id="TDX1Om9_mr7GkMm_Q6n2-4" value="segment 내에&amp;nbsp;&lt;br&gt;file이 여러 개" style="whiteSpace=wrap;html=1;rounded=0;" vertex="1" parent="1">
          <mxGeometry x="70" y="415" width="120" height="60" as="geometry" />
        </mxCell>
        <mxCell id="TDX1Om9_mr7GkMm_Q6n2-14" value="" style="edgeStyle=orthogonalEdgeStyle;rounded=0;orthogonalLoop=1;jettySize=auto;html=1;" edge="1" parent="1" source="TDX1Om9_mr7GkMm_Q6n2-6" target="TDX1Om9_mr7GkMm_Q6n2-13">
          <mxGeometry relative="1" as="geometry" />
        </mxCell>
        <mxCell id="TDX1Om9_mr7GkMm_Q6n2-17" value="" style="edgeStyle=orthogonalEdgeStyle;rounded=0;orthogonalLoop=1;jettySize=auto;html=1;" edge="1" parent="1" source="TDX1Om9_mr7GkMm_Q6n2-6" target="TDX1Om9_mr7GkMm_Q6n2-16">
          <mxGeometry relative="1" as="geometry">
            <Array as="points">
              <mxPoint x="480" y="205" />
            </Array>
          </mxGeometry>
        </mxCell>
        <mxCell id="TDX1Om9_mr7GkMm_Q6n2-6" value="화자 검증" style="whiteSpace=wrap;html=1;rounded=0;" vertex="1" parent="1">
          <mxGeometry x="420" y="75" width="120" height="60" as="geometry" />
        </mxCell>
        <mxCell id="TDX1Om9_mr7GkMm_Q6n2-9" value="Queue에 삽입" style="whiteSpace=wrap;html=1;rounded=0;" vertex="1" parent="1">
          <mxGeometry x="420" y="255" width="120" height="60" as="geometry" />
        </mxCell>
        <mxCell id="TDX1Om9_mr7GkMm_Q6n2-13" value="Queue에 삽입" style="whiteSpace=wrap;html=1;rounded=0;" vertex="1" parent="1">
          <mxGeometry x="620" y="75" width="120" height="60" as="geometry" />
        </mxCell>
        <mxCell id="TDX1Om9_mr7GkMm_Q6n2-31" value="" style="edgeStyle=orthogonalEdgeStyle;rounded=0;orthogonalLoop=1;jettySize=auto;html=1;" edge="1" parent="1" source="TDX1Om9_mr7GkMm_Q6n2-16" target="TDX1Om9_mr7GkMm_Q6n2-30">
          <mxGeometry relative="1" as="geometry">
            <Array as="points">
              <mxPoint x="870" y="205" />
              <mxPoint x="870" y="205" />
            </Array>
          </mxGeometry>
        </mxCell>
        <mxCell id="TDX1Om9_mr7GkMm_Q6n2-16" value="Queue STT&lt;br&gt;Queue 삽입" style="whiteSpace=wrap;html=1;rounded=0;" vertex="1" parent="1">
          <mxGeometry x="620" y="175" width="120" height="60" as="geometry" />
        </mxCell>
        <mxCell id="TDX1Om9_mr7GkMm_Q6n2-21" value="" style="edgeStyle=orthogonalEdgeStyle;rounded=0;orthogonalLoop=1;jettySize=auto;html=1;" edge="1" parent="1" source="TDX1Om9_mr7GkMm_Q6n2-18" target="TDX1Om9_mr7GkMm_Q6n2-20">
          <mxGeometry relative="1" as="geometry" />
        </mxCell>
        <mxCell id="TDX1Om9_mr7GkMm_Q6n2-23" value="" style="edgeStyle=orthogonalEdgeStyle;rounded=0;orthogonalLoop=1;jettySize=auto;html=1;" edge="1" parent="1" source="TDX1Om9_mr7GkMm_Q6n2-18" target="TDX1Om9_mr7GkMm_Q6n2-22">
          <mxGeometry relative="1" as="geometry">
            <Array as="points">
              <mxPoint x="330" y="365" />
            </Array>
          </mxGeometry>
        </mxCell>
        <mxCell id="TDX1Om9_mr7GkMm_Q6n2-25" value="" style="edgeStyle=orthogonalEdgeStyle;rounded=0;orthogonalLoop=1;jettySize=auto;html=1;" edge="1" parent="1" source="TDX1Om9_mr7GkMm_Q6n2-18" target="TDX1Om9_mr7GkMm_Q6n2-24">
          <mxGeometry relative="1" as="geometry">
            <Array as="points">
              <mxPoint x="330" y="525" />
            </Array>
          </mxGeometry>
        </mxCell>
        <mxCell id="TDX1Om9_mr7GkMm_Q6n2-18" value="순서 정렬" style="whiteSpace=wrap;html=1;rounded=0;" vertex="1" parent="1">
          <mxGeometry x="270" y="415" width="120" height="60" as="geometry" />
        </mxCell>
        <mxCell id="TDX1Om9_mr7GkMm_Q6n2-33" style="edgeStyle=orthogonalEdgeStyle;rounded=0;orthogonalLoop=1;jettySize=auto;html=1;entryX=-0.03;entryY=0.785;entryDx=0;entryDy=0;entryPerimeter=0;dashed=1;" edge="1" parent="1" source="TDX1Om9_mr7GkMm_Q6n2-20" target="TDX1Om9_mr7GkMm_Q6n2-30">
          <mxGeometry relative="1" as="geometry" />
        </mxCell>
        <mxCell id="TDX1Om9_mr7GkMm_Q6n2-20" value="(2번째)" style="whiteSpace=wrap;html=1;rounded=0;" vertex="1" parent="1">
          <mxGeometry x="420" y="415" width="120" height="60" as="geometry" />
        </mxCell>
        <mxCell id="TDX1Om9_mr7GkMm_Q6n2-27" value="" style="edgeStyle=orthogonalEdgeStyle;rounded=0;orthogonalLoop=1;jettySize=auto;html=1;" edge="1" parent="1" source="TDX1Om9_mr7GkMm_Q6n2-22" target="TDX1Om9_mr7GkMm_Q6n2-26">
          <mxGeometry relative="1" as="geometry" />
        </mxCell>
        <mxCell id="TDX1Om9_mr7GkMm_Q6n2-22" value="첫번째" style="whiteSpace=wrap;html=1;rounded=0;" vertex="1" parent="1">
          <mxGeometry x="420" y="335" width="120" height="60" as="geometry" />
        </mxCell>
        <mxCell id="TDX1Om9_mr7GkMm_Q6n2-29" value="" style="edgeStyle=orthogonalEdgeStyle;rounded=0;orthogonalLoop=1;jettySize=auto;html=1;" edge="1" parent="1" source="TDX1Om9_mr7GkMm_Q6n2-24" target="TDX1Om9_mr7GkMm_Q6n2-28">
          <mxGeometry relative="1" as="geometry" />
        </mxCell>
        <mxCell id="TDX1Om9_mr7GkMm_Q6n2-24" value="마지막" style="whiteSpace=wrap;html=1;rounded=0;" vertex="1" parent="1">
          <mxGeometry x="420" y="495" width="120" height="60" as="geometry" />
        </mxCell>
        <mxCell id="TDX1Om9_mr7GkMm_Q6n2-32" style="edgeStyle=orthogonalEdgeStyle;rounded=0;orthogonalLoop=1;jettySize=auto;html=1;entryX=-0.023;entryY=0.627;entryDx=0;entryDy=0;entryPerimeter=0;" edge="1" parent="1" source="TDX1Om9_mr7GkMm_Q6n2-26" target="TDX1Om9_mr7GkMm_Q6n2-30">
          <mxGeometry relative="1" as="geometry" />
        </mxCell>
        <mxCell id="TDX1Om9_mr7GkMm_Q6n2-26" value="화자 검증" style="whiteSpace=wrap;html=1;rounded=0;" vertex="1" parent="1">
          <mxGeometry x="620" y="335" width="120" height="60" as="geometry" />
        </mxCell>
        <mxCell id="TDX1Om9_mr7GkMm_Q6n2-28" value="Queue에 삽입" style="whiteSpace=wrap;html=1;rounded=0;" vertex="1" parent="1">
          <mxGeometry x="620" y="495" width="120" height="60" as="geometry" />
        </mxCell>
        <mxCell id="TDX1Om9_mr7GkMm_Q6n2-30" value="무음 제거&lt;br&gt;&amp;amp;&lt;br&gt;STT" style="whiteSpace=wrap;html=1;rounded=0;" vertex="1" parent="1">
          <mxGeometry x="910" y="45" width="120" height="510" as="geometry" />
        </mxCell>
        <mxCell id="TDX1Om9_mr7GkMm_Q6n2-34" value="!Q.empty()" style="text;html=1;strokeColor=none;fillColor=none;align=center;verticalAlign=middle;whiteSpace=wrap;rounded=0;" vertex="1" parent="1">
          <mxGeometry x="320" y="75" width="60" height="30" as="geometry" />
        </mxCell>
        <mxCell id="TDX1Om9_mr7GkMm_Q6n2-35" value="Q.empty()" style="text;html=1;strokeColor=none;fillColor=none;align=center;verticalAlign=middle;whiteSpace=wrap;rounded=0;" vertex="1" parent="1">
          <mxGeometry x="320" y="285" width="60" height="30" as="geometry" />
        </mxCell>
        <mxCell id="TDX1Om9_mr7GkMm_Q6n2-36" value="동일 화자" style="text;html=1;strokeColor=none;fillColor=none;align=center;verticalAlign=middle;whiteSpace=wrap;rounded=0;" vertex="1" parent="1">
          <mxGeometry x="550" y="75" width="60" height="30" as="geometry" />
        </mxCell>
        <mxCell id="TDX1Om9_mr7GkMm_Q6n2-37" value="!동일 화자" style="text;html=1;strokeColor=none;fillColor=none;align=center;verticalAlign=middle;whiteSpace=wrap;rounded=0;" vertex="1" parent="1">
          <mxGeometry x="550" y="175" width="60" height="30" as="geometry" />
        </mxCell>
        <mxCell id="TDX1Om9_mr7GkMm_Q6n2-38" value="" style="rounded=0;whiteSpace=wrap;html=1;" vertex="1" parent="1">
          <mxGeometry x="-10" width="30" height="10" as="geometry" />
        </mxCell>
        <mxCell id="TDX1Om9_mr7GkMm_Q6n2-39" value="" style="rounded=0;whiteSpace=wrap;html=1;" vertex="1" parent="1">
          <mxGeometry x="1060" y="575" width="30" height="10" as="geometry" />
        </mxCell>
      </root>
    </mxGraphModel>
  </diagram>
</mxfile>
